<svg xmlns="http://www.w3.org/2000/svg" aria-hidden="true" style="position:absolute;width:0;height:0;overflow:hidden"><defs>

<symbol id="icon-cv" viewBox="0 0 25 32"><path fill="#2f4590" d="M24.657 9.364a2.866 2.866 0 0 0-.839-2.107L18.12 1.56a2.933 2.933 0 0 0-2.042-.84H2.828c-1.2 0-2.182.971-2.182 2.182v26.195c0 1.2.982 2.182 2.182 2.182h19.647c1.2 0 2.182-.982 2.182-2.182V9.364zm-8.186-4.813 4.355 4.355h-4.355V4.551zm4.911 23.455H3.92V3.995h9.276V9.3a2.886 2.886 0 0 0 2.881 2.881h5.305v15.825z" style="fill:var(--color1, #2f4590)"/><path fill="#2f4590" d="M9.38 10.761a1.76 1.76 0 0 0 1.27-.492 1.73 1.73 0 0 0 .531-1.254A1.749 1.749 0 0 0 9.38 7.269a1.75 1.75 0 0 0-1.694 1.746 1.747 1.747 0 0 0 1.694 1.746zM12.87 14.544c0-1.857-1.562-3.201-3.492-3.201-1.929 0-3.492 1.342-3.492 3.201v.873a.586.586 0 0 0 .583.583h5.82a.582.582 0 0 0 .581-.583v-.873zm-6.494 5.549a.818.818 0 0 1 .819-.819h10.914a.818.818 0 1 1 0 1.638H7.195a.818.818 0 0 1-.819-.819zm0 3.819a.818.818 0 0 1 .819-.819h10.914a.818.818 0 1 1 0 1.638H7.195a.818.818 0 0 1-.819-.819z" style="fill:var(--color1, #2f4590)"/></symbol>
<symbol id="icon-downarrow" viewBox="0 0 31 32"><path stroke-linecap="round" stroke-linejoin="round" stroke-width="1.92" d="m8.96 13.44 6.4 5.12 6.4-5.12"/></symbol>

<symbol id="icon-envelope" viewBox="0 0 31 32"><path fill="none" stroke="#2f4590" stroke-linecap="round" stroke-linejoin="round" stroke-width="2.612" d="M28.735 16V6.204H2.613v19.592h13.061m13.061-3.265h-9.143m5.877-3.266 3.265 3.265-3.265 3.265" style="stroke:var(--color1, #2f4590)"/><path fill="none" stroke="#2f4590" stroke-linecap="round" stroke-linejoin="round" stroke-width="2.612" d="M2.612 6.204 15.673 16l13.061-9.796" style="stroke:var(--color1, #2f4590)"/></symbol>

<symbol id="icon-facebook" viewBox="0 0 32 32"><path fill="#fff" d="M13.051 25.333v-8.759h-2.383V13.42h2.383v-2.694c0-2.117 1.407-4.06 4.65-4.06 1.313 0 2.284.122 2.284.122l-.076 2.945s-.99-.009-2.071-.009c-1.169 0-1.357.524-1.357 1.393v2.303h3.52l-.153 3.154h-3.367v8.759h-3.43z" style="fill:var(--color2, #fff)"/></symbol>

<symbol id="icon-handshake" viewBox="0 0 31 32"><path fill="#2f4590" d="M24.355 8.307a5.695 5.695 0 0 0-.024.447l-1.878.897c-.263-.043-1.567.033-3.513-.927-.493-.243-.975-.373-1.438-.373a2.65 2.65 0 0 0-1.204.291c-.491-.106-1.199-.379-1.613-.378-.937.005-3.066.768-3.655.833a6.31 6.31 0 0 0-1.769.475c-1.087-.316-2.449-.833-3.179-1.119L.981 4.735v11.956l3.749 1.784c.054-.064.117-.162.184-.283l.116.054c.057.147.12.293.188.439-.411.693-.46 1.473-.132 2.151.282.58.806.988 1.391 1.102.032.361.153.711.358 1.014.367.542.951.866 1.563.866.055 0 .111-.002.166-.009.087.236.215.455.381.645a1.89 1.89 0 0 0 1.534.664c.068.257.183.5.343.716.37.5.94.797 1.527.797.364 0 .713-.112 1.02-.321.594.381 1.11.649 1.568.814.23.094.469.142.713.142.577 0 1.137-.269 1.536-.741.148-.175.269-.371.357-.581.173.052.352.079.532.079.613 0 1.195-.3 1.597-.825.191-.249.329-.534.407-.838.042.003.084.004.125.004.709 0 1.387-.416 1.769-1.085.2-.348.306-.743.308-1.144.7-.104 1.317-.602 1.617-1.329a2.347 2.347 0 0 0-.197-2.163l1.908-1.075c.049.168.097.322.144.447l4.616-2.456V5.54l-6.012 2.768zm0 1.487c.03.53.086 1.129.157 1.754-.392-.658-.886-.959-1.501-1.108l1.344-.647zM21.794 21.43c-1.052-.362-3.242-2.936-3.242-2.936h.043c.223-.016.704-.25 1.245-.138-.848-.729-1.781-.112-2.417-.49.147.473.856.622 1.038.627l2.098 2.44c.95 1.104.289 2.471-.664 2.688-.639-.311-2.444-2.458-2.444-2.458.062-.011.428-.126.8-.077-.861-.644-1.836-.085-2.415-.489.328.811 1.409.603 1.522.583l1.123 1.433c.898 1.146.192 2.47-.762 2.649-.846-.297-1.395-1.355-1.395-1.355.085-.014.37-.141.776-.082-.721-.632-1.561-.059-2.066-.419.312.68 1.09.525 1.133.52.778 1.225-.029 2.502-.993 2.541h-.002c-.579-.1-1.185-.563-1.87-1.038.235-.261.443-.719.443-.719.688-1.245-.205-2.346-1.126-2.252.747.204 1.308 1.158.724 2.218l-.256.431c-.278.507-.713.813-1.032.775-.492-.06-1.185-.778-.893-1.791.113-.103 1.199-1.765 1.199-1.765.747-1.203-.092-2.354-1.015-2.315.736.248 1.251 1.235.617 2.258l-.883 1.377c-.301.487-.691.763-1.063.712-.577-.078-.982-.782-.889-1.509-.005.004.636-.712.636-.712.851-1.112.122-2.354-.8-2.42.709.33 1.131 1.37.408 2.317l-.312.383c-.343.45-.756.678-1.117.588-.631-.158-.959-1.339-.661-1.66.235-.253.893-1.055.893-1.055.851-1.113.123-2.354-.8-2.421.709.331 1.131 1.371.408 2.319l-.313.382c-.345.454-.759.681-1.123.589-.758-.192-1.137-1.363-.411-2.313 0 0-.246-.783-.358-1.117l-.365-.169c.857-1.996 2.151-6.401 2.21-7.865.631.225 2.296.704 2.473.705l-.001.001c1.793-.563 3.671-.501 4.529-.832.278-.106.83-.113 1.416.222-.366.321-.712.703-1.071 1.059-.858.852-4.049 2.18-3.433 3.577.531 1.205 2.026 2.439 4.535.502l1.411-.194 2.194 1.082 2.811 2.887c1.003 1.028.435 2.423-.491 2.721zm.705-3.181c-.322-.602-1.327-1.59-2.275-2.398l-.006-.006c.437.018.896-.687 1.489-.741-.414-.316-1.101.049-1.315.107-1.18.317-3.014-1.167-3.014-1.167l-1.754.253s-2.087 2.546-3.844.449c-.955-1.139 2.505-2.627 3.357-3.474 1.092-1.085 2.064-2.412 3.861-1.508 1.492.752 2.08.706 4.081 1.054.597.104 1.01.378 1.453.911.209 1.755.546 3.702.87 5.057-.167.141-1.599 1.104-2.903 1.464z" style="fill:var(--color1, #2f4590)"/></symbol>

<symbol id="icon-instagram" viewBox="0 0 33 32"><path fill="#fff" d="M17.026 10.609c-3.029 0-5.471 2.405-5.471 5.386s2.443 5.386 5.471 5.386 5.471-2.405 5.471-5.386c0-2.981-2.443-5.386-5.471-5.386zm0 8.888c-1.957 0-3.557-1.57-3.557-3.502s1.595-3.502 3.557-3.502 3.557 1.57 3.557 3.502-1.6 3.502-3.557 3.502zm6.971-9.108c0 .698-.571 1.256-1.276 1.256-.71 0-1.276-.563-1.276-1.256s.571-1.256 1.276-1.256c.705 0 1.276.563 1.276 1.256zm3.624 1.275c-.081-1.683-.471-3.173-1.724-4.402-1.248-1.228-2.762-1.612-4.471-1.697-1.762-.098-7.043-.098-8.805 0-1.705.08-3.219.464-4.471 1.692s-1.638 2.719-1.724 4.402c-.1 1.734-.1 6.933 0 8.667.081 1.683.471 3.173 1.724 4.401s2.762 1.613 4.471 1.697c1.762.098 7.043.098 8.805 0 1.71-.08 3.224-.464 4.471-1.697 1.248-1.228 1.638-2.719 1.724-4.401.1-1.734.1-6.928 0-8.663zm-2.276 10.523a3.572 3.572 0 0 1-2.029 1.997c-1.405.548-4.738.422-6.29.422s-4.89.122-6.29-.422a3.577 3.577 0 0 1-2.029-1.997c-.557-1.383-.429-4.664-.429-6.192s-.124-4.814.429-6.192a3.569 3.569 0 0 1 2.029-1.997c1.405-.548 4.738-.422 6.29-.422s4.89-.122 6.29.422a3.577 3.577 0 0 1 2.029 1.997c.557 1.383.429 4.664.429 6.192s.129 4.814-.429 6.192z" style="fill:var(--color2, #fff)"/></symbol>

<symbol id="icon-linkedIn" viewBox="0 0 33 32"><path fill="#fff" d="M10.892 25.332V11.838H6.318v13.494h4.574zM8.605 9.995c1.595 0 2.588-1.036 2.588-2.331-.03-1.324-.993-2.332-2.557-2.332S6.048 6.339 6.048 7.664c0 1.295.993 2.331 2.527 2.331h.03zm4.818 15.337h4.574v-7.536c0-.403.03-.806.151-1.095.331-.806 1.083-1.64 2.347-1.64 1.655 0 2.317 1.238 2.317 3.051v7.219h4.573v-7.737c0-4.145-2.256-6.073-5.266-6.073-2.467 0-3.551 1.352-4.152 2.274h.031v-1.957h-4.574c.06 1.266 0 13.494 0 13.494z" style="fill:var(--color2, #fff)"/></symbol>

<symbol id="icon-Logo" viewBox="0 0 83 32"><path fill="#2f4590" d="M.109 3.217c0-.38.033-.712.098-.995s.19-.516.375-.701c.185-.196.44-.342.766-.44S2.098.934 2.62.934h7.272c.63 0 1.109.092 1.435.277.337.185.571.419.701.701.141.272.217.565.228.88.011.304.016.587.016.848v18.473c.75-.109 1.446-.206 2.087-.293l.815-.098c.283-.044.538-.082.766-.114.239-.033.451-.054.636-.065.185-.022.321-.033.407-.033.185 0 .332.038.44.114.12.065.179.206.179.424v1.5c0 .196-.087.38-.261.554-.163.163-.429.245-.799.245H2.586c-.511 0-.929-.049-1.255-.147-.315-.098-.565-.239-.75-.424s-.31-.418-.375-.701a4.475 4.475 0 0 1-.098-.994V3.217zM28.87 24.919c-.815 0-1.63-.065-2.446-.196s-1.598-.337-2.348-.62c-.739-.283-1.429-.652-2.071-1.109s-1.201-1.016-1.679-1.679a8.22 8.22 0 0 1-1.109-2.299c-.272-.88-.408-1.886-.408-3.016 0-1.109.136-2.098.408-2.967.272-.88.641-1.652 1.109-2.315a7.232 7.232 0 0 1 1.679-1.679 8.9 8.9 0 0 1 2.071-1.125c.75-.293 1.533-.505 2.348-.636s1.63-.196 2.446-.196c.75 0 1.516.049 2.299.147.794.087 1.56.255 2.299.505.75.239 1.451.571 2.103.995a6.343 6.343 0 0 1 1.728 1.598c.5.652.891 1.435 1.174 2.348.294.902.44 1.967.44 3.196 0 1.261-.141 2.364-.424 3.31-.283.935-.674 1.739-1.174 2.413-.489.663-1.06 1.212-1.712 1.647s-1.353.777-2.103 1.027c-.739.239-1.505.408-2.299.505s-1.571.147-2.332.147zm5.005-3.913c.337 0 .668-.071.995-.212.337-.152.63-.419.88-.799.261-.38.467-.902.62-1.565.163-.674.245-1.527.245-2.56 0-.978-.082-1.783-.245-2.413-.152-.63-.359-1.125-.62-1.484-.261-.37-.554-.625-.88-.766s-.658-.212-.995-.212c-.261 0-.554.054-.881.163-.315.109-.614.342-.897.701-.272.348-.5.853-.685 1.516-.185.652-.277 1.527-.277 2.625s.076 1.978.228 2.641c.152.663.353 1.169.603 1.516s.538.576.864.685a3.37 3.37 0 0 0 1.043.163zm16.842 1.711c-.826 0-1.647-.054-2.462-.163A13.646 13.646 0 0 1 45.907 22a.819.819 0 0 0-.016.163v.147c0 .326.054.63.163.913.109.272.277.511.505.717.239.207.549.37.929.489s.842.179 1.386.179c.598 0 1.152-.038 1.663-.114a54.754 54.754 0 0 0 1.5-.212 33.8 33.8 0 0 1 1.467-.228c.5-.076 1.027-.114 1.582-.114.533 0 1.054.098 1.565.294.511.185.962.456 1.353.815.402.37.723.821.962 1.353s.359 1.141.359 1.826c0 .609-.06 1.141-.179 1.598-.109.456-.223.891-.342 1.304a.787.787 0 0 1-.13.196c-.054.076-.163.114-.326.114h-1.207c-.152 0-.25-.038-.293-.114a1.482 1.482 0 0 1-.098-.163c-.207-.511-1.005-.766-2.397-.766-.598 0-1.19.033-1.777.098a393 393 0 0 1-1.794.228c-.609.087-1.245.163-1.908.228-.652.076-1.342.114-2.071.114-1.011 0-1.87-.169-2.576-.505-.696-.337-1.261-.766-1.696-1.288-.435-.511-.75-1.076-.946-1.696s-.293-1.207-.293-1.761c0-.598.065-1.141.196-1.63.141-.5.321-.951.538-1.353s.467-.761.75-1.076c.283-.326.565-.62.848-.88-.891-.609-1.609-1.402-2.152-2.38s-.815-2.179-.815-3.603c0-.967.136-1.832.407-2.592a6.708 6.708 0 0 1 1.109-2.022c.478-.587 1.038-1.082 1.679-1.484s1.332-.728 2.071-.978a11.87 11.87 0 0 1 2.348-.554c.815-.12 1.63-.179 2.446-.179.728 0 1.473.038 2.234.114s1.5.217 2.217.424a9.966 9.966 0 0 1 2.054.799 6.518 6.518 0 0 1 1.728 1.288l1.777-1.81c.12-.12.234-.207.342-.261a.806.806 0 0 1 .326-.082c.174 0 .332.071.473.212l.799.848c.13.152.196.31.196.473 0 .239-.136.457-.408.652l-2.364 1.663c.217.467.38.978.489 1.533.12.554.179 1.163.179 1.826 0 1.109-.141 2.076-.424 2.902s-.674 1.533-1.174 2.12c-.489.587-1.06 1.071-1.712 1.451s-1.353.679-2.103.897c-.739.217-1.505.37-2.299.457s-1.571.13-2.332.13zm5.446-9.619c-.054-.054-.082-.136-.082-.245 0-.13.049-.245.147-.342l1.043-1.076a1.983 1.983 0 0 0-.718-.342c-.25-.065-.505-.098-.766-.098s-.554.043-.881.13c-.315.076-.62.25-.913.522-.283.272-.522.668-.717 1.19-.196.511-.294 1.196-.294 2.054s.076 1.549.228 2.071c.163.511.375.902.636 1.174s.56.451.897.538c.337.087.685.13 1.043.13.337 0 .668-.054.995-.163.326-.119.609-.326.848-.62.25-.304.451-.712.603-1.223.152-.522.228-1.19.228-2.005s-.092-1.489-.277-2.022l-1.092.766a.493.493 0 0 1-.261.082.416.416 0 0 1-.342-.163l-.326-.359zm16.924 11.821c-.815 0-1.63-.065-2.446-.196s-1.598-.337-2.348-.62c-.739-.283-1.429-.652-2.071-1.109s-1.201-1.016-1.679-1.679a8.22 8.22 0 0 1-1.109-2.299c-.272-.88-.408-1.886-.408-3.016 0-1.109.136-2.098.408-2.967.272-.88.641-1.652 1.109-2.315a7.232 7.232 0 0 1 1.679-1.679 8.9 8.9 0 0 1 2.071-1.125c.75-.293 1.533-.505 2.348-.636s1.63-.196 2.446-.196c.75 0 1.516.049 2.299.147.793.087 1.56.255 2.299.505.75.239 1.451.571 2.103.995a6.343 6.343 0 0 1 1.728 1.598c.5.652.891 1.435 1.174 2.348.293.902.44 1.967.44 3.196 0 1.261-.141 2.364-.424 3.31-.283.935-.674 1.739-1.174 2.413-.489.663-1.06 1.212-1.712 1.647s-1.353.777-2.103 1.027c-.739.239-1.506.408-2.299.505s-1.571.147-2.332.147zm5.005-3.913c.337 0 .669-.071.995-.212.337-.152.63-.419.88-.799.261-.38.467-.902.62-1.565.163-.674.245-1.527.245-2.56 0-.978-.082-1.783-.245-2.413-.152-.63-.359-1.125-.62-1.484-.261-.37-.554-.625-.88-.766s-.658-.212-.995-.212c-.261 0-.554.054-.88.163-.315.109-.614.342-.897.701-.272.348-.5.853-.685 1.516-.185.652-.277 1.527-.277 2.625s.076 1.978.228 2.641c.152.663.353 1.169.603 1.516s.538.576.864.685a3.37 3.37 0 0 0 1.043.163z" style="fill:var(--color1, #2f4590)"/></symbol>

<symbol id="icon-Polygon-1" viewBox="0 0 48 32"><path fill="#2f4590" d="m24.229 29.333-23.094-28h46.188l-23.094 28z" style="fill:var(--color1, #2f4590)"/></symbol>

<symbol id="icon-search-icon" viewBox="0 0 32 32"><path fill="none" stroke="#2f4590" stroke-linecap="round" stroke-linejoin="round" stroke-width="2" d="m22.933 22.933 3.733 3.733M25.6 15.467c0-5.596-4.537-10.133-10.133-10.133S5.334 9.871 5.334 15.467c0 5.597 4.537 10.133 10.133 10.133S25.6 21.063 25.6 15.467z" style="stroke:var(--color1, #2f4590)"/></symbol>

<symbol id="icon-twitter" viewBox="0 0 33 32"><path fill="#fff" d="M28.308 8.94c-.899.379-1.852.628-2.828.739 1.017-.581 1.797-1.5 2.165-2.595-.967.546-2.024.931-3.127 1.138a5.033 5.033 0 0 0-3.594-1.481c-2.719 0-4.924 2.1-4.924 4.691 0 .368.044.726.127 1.069-4.092-.196-7.72-2.063-10.149-4.901a4.501 4.501 0 0 0-.667 2.358c0 1.627.869 3.063 2.19 3.904a5.087 5.087 0 0 1-2.23-.587v.059c0 2.273 1.697 4.169 3.95 4.6a5.168 5.168 0 0 1-2.224.08c.627 1.864 2.445 3.22 4.6 3.258a10.195 10.195 0 0 1-6.115 2.008c-.397 0-.789-.022-1.175-.066a14.443 14.443 0 0 0 7.548 2.108c9.057 0 14.009-7.148 14.009-13.347 0-.203-.005-.406-.014-.607a9.76 9.76 0 0 0 2.457-2.428z" style="fill:var(--color2, #fff)"/></symbol>
</defs></svg>